# xmcd
#
# Track frame offsets: 
#        150
#        18551
#        35162
#        52458
#        73762
#        91968
#        107273
#        131797
#        147181
#        169326
#        181487
#        204774
#        216706
#
# Disc length: 3125 seconds
#
# Revision: 0
# Processed by: cddbd v1.5.2PL0 Copyright (c) Steve Scherf et al.
# Submitted via: ExactAudioCopy v0.99pb5
#
DISCID=cd0c330d
DTITLE=Steve Cohen Blues Band featuring Greg Koch - Mixed Feelings
DYEAR=2005
DGENRE=Blues
TTITLE0=Holdin' On To You
TTITLE1=Daydream
TTITLE2=The Action
TTITLE3=Leroy In Rio
TTITLE4=Givin' It Up For Your Love
TTITLE5=Misty
TTITLE6=Too Broke
TTITLE7=Funky Driveway
TTITLE8=Crazy Mama
TTITLE9=Solid Gold Cadillac
TTITLE10=Strut
TTITLE11=What Is It (About Love)
TTITLE12=Road Map
EXTD=
EXTT0=
EXTT1=
EXTT2=
EXTT3=
EXTT4=
EXTT5=
EXTT6=
EXTT7=
EXTT8=
EXTT9=
EXTT10=
EXTT11=
EXTT12=
PLAYORDER=
